<svg xmlns="http://www.w3.org/2000/svg" width="43.936" height="54.908" viewBox="0 0 43.936 54.908">
  <defs>
    <style>
      .cls-1 {
        fill: #fff;
      }
    </style>
  </defs>
  <g id="products_list_提示手" data-name="products list 提示手" transform="translate(-1081.379 -980.459)">
    <g id="Group_18" data-name="Group 18">
      <path id="Path_16" data-name="Path 16" class="cls-1" d="M1123.737,1000.972a2.6,2.6,0,0,0-1.58-2.061,2.79,2.79,0,0,0-2.663.283,3.167,3.167,0,0,0-1.12,3.258l-.425-2.41A3.746,3.746,0,0,0,1113.61,997h-.007a3.745,3.745,0,0,0-3.071,4.075l-.412-2.336a4.236,4.236,0,0,0-4.907-3.437h-.007a4.238,4.238,0,0,0-3.437,4.908l-2.787-15.807a4.236,4.236,0,0,0-4.908-3.436h-.007a4.237,4.237,0,0,0-3.436,4.908l4.565,25.887a.63.63,0,0,1-.965.636l-5.77-3.782a4.294,4.294,0,0,0-5.913,1.191l0,0a4.182,4.182,0,0,0,1.175,5.836l10.175,6.667a9.886,9.886,0,0,1,4.318,6.552l.934,5.3a.9.9,0,0,0,1.042.728l22.748-4.011a.9.9,0,0,0,.729-1.041l-.708-4.015a9,9,0,0,1-.012-3.054l1.6-9.5a23.337,23.337,0,0,0-.032-7.931Z"/>
      <path id="Path_17" data-name="Path 17" d="M1123.014,1031.335l-22.749,4.011a1.349,1.349,0,0,1-1.561-1.093l-.935-5.3a9.471,9.471,0,0,0-4.121-6.254l-10.176-6.668a4.628,4.628,0,0,1-1.3-6.461,4.762,4.762,0,0,1,6.535-1.322l5.77,3.782a.18.18,0,0,0,.276-.182l-4.565-25.887a4.69,4.69,0,0,1,9.237-1.629l2.308,13.092a4.69,4.69,0,0,1,8.83,1.242l.007.036a4.193,4.193,0,0,1,7.782,1.068,3.07,3.07,0,0,1,.885-.944,3.239,3.239,0,0,1,3.1-.327,3.048,3.048,0,0,1,1.846,2.4l.772,4.381a23.794,23.794,0,0,1,.033,8.083l-1.6,9.5a8.57,8.57,0,0,0,.013,2.9l.708,4.015A1.35,1.35,0,0,1,1123.014,1031.335Zm-37.571-22.9a3.839,3.839,0,0,0-2.523,1.631,3.733,3.733,0,0,0,1.045,5.214l10.176,6.667a10.375,10.375,0,0,1,4.513,6.85l.935,5.3a.45.45,0,0,0,.52.364l22.749-4.011a.451.451,0,0,0,.365-.521l-.708-4.015a9.436,9.436,0,0,1-.014-3.207l1.6-9.5a22.9,22.9,0,0,0-.032-7.778l-.773-4.381a2.164,2.164,0,0,0-1.314-1.727,2.331,2.331,0,0,0-2.229.239,2.807,2.807,0,0,0-.933,2.821l-.887.146-.425-2.41a3.3,3.3,0,0,0-6.526.913l-.89.125-.412-2.337a3.791,3.791,0,0,0-7.466,1.317l-.885.156-2.787-15.807a3.791,3.791,0,0,0-7.467,1.317l4.565,25.887a1.079,1.079,0,0,1-1.654,1.089l-5.77-3.781A3.828,3.828,0,0,0,1085.443,1008.434Z"/>
    </g>
    <g id="Group_19" data-name="Group 19">
      <rect id="Rectangle_6" data-name="Rectangle 6" width="0.899" height="6.284" transform="translate(1101.306 1000.174) rotate(-10.007)"/>
    </g>
    <g id="Group_20" data-name="Group 20">
      <rect id="Rectangle_7" data-name="Rectangle 7" width="0.899" height="5.348" transform="translate(1109.93 1000.251) rotate(-10.009)"/>
    </g>
  </g>
</svg>
